<?xml version="1.0" encoding="UTF-8" standalone="no"?>
<svg width="25px" height="25px" viewBox="0 0 25 25" version="1.1" xmlns="http://www.w3.org/2000/svg" xmlns:xlink="http://www.w3.org/1999/xlink">
    <!-- Generator: Sketch 41.2 (35397) - http://www.bohemiancoding.com/sketch -->
    <title>noun_755939_cc</title>
    <desc>Created with Sketch.</desc>
    <defs></defs>
    <g id="Page-1" stroke="none" stroke-width="1" fill="none" fill-rule="evenodd">
        <g id="noun_755939_cc" fill="#000000">
            <polygon id="Shape" points="17.449 6.843 12.5 11.793 7.55 6.843 6.843 7.55 11.793 12.5 6.843 17.449 7.55 18.157 12.5 13.207 17.449 18.157 18.156 17.449 13.207 12.5 18.156 7.55"></polygon>
            <path d="M12.5,0 C5.596,0 0,5.596 0,12.5 C0,19.403 5.596,25 12.5,25 C19.404,25 25,19.403 25,12.5 C25,5.596 19.404,0 12.5,0 Z M12.5,24 C6.172,24 1,18.828 1,12.5 C1,6.171 6.172,1 12.5,1 C18.828,1 24,6.171 24,12.5 C24,18.828 18.828,24 12.5,24 Z" id="Shape"></path>
        </g>
    </g>
</svg>