<?xml version="1.0" encoding="UTF-8" standalone="no"?>
<svg width="50px" height="50px" viewBox="0 0 50 50" version="1.1" xmlns="http://www.w3.org/2000/svg" xmlns:xlink="http://www.w3.org/1999/xlink">
    <!-- Generator: Sketch 41.2 (35397) - http://www.bohemiancoding.com/sketch -->
    <title>noun_733442_cc</title>
    <desc>Created with Sketch.</desc>
    <defs></defs>
    <g id="Page-1" stroke="none" stroke-width="1" fill="none" fill-rule="evenodd">
        <g id="noun_733442_cc" transform="translate(0.000000, -1.000000)" fill="#FFFFFF">
            <g id="Group">
                <g transform="translate(0.000000, 0.637820)" id="Shape">
                    <path d="M4.898613,0.36219 C3.643813,0.36219 2.393413,0.84499 1.436013,1.80219 C-0.478688,3.71679 -0.478688,6.81229 1.436013,8.72679 L18.074813,25.3643 L1.436013,42.0017 C-0.478688,43.9162 -0.478688,47.0117 1.436013,48.9263 C3.350813,50.8408 6.446412,50.8408 8.361113,48.9263 L25.000013,32.2889 L41.638812,48.9263 C43.553612,50.8408 46.649213,50.8408 48.563912,48.9263 C50.478712,47.0117 50.478712,43.9162 48.563912,42.0017 L31.925212,25.3643 L48.563912,8.72679 C50.478712,6.81229 50.478712,3.71679 48.563912,1.80219 C46.649213,-0.11231 43.553612,-0.11231 41.638812,1.80219 L25.000012,18.43969 L8.361112,1.80219 C7.403812,0.84499 6.153312,0.36219 4.898612,0.36219 L4.898613,0.36219 Z"></path>
                </g>
            </g>
        </g>
    </g>
</svg>